<?xml version="1.0" encoding="UTF-8"?>
<!DOCTYPE svg PUBLIC "-//W3C//DTD SVG 1.1//EN" "http://www.w3.org/Graphics/SVG/1.1/DTD/svg11.dtd">
<!-- Creator: CorelDRAW 2021 (64-Bit) -->
<svg xmlns="http://www.w3.org/2000/svg" xml:space="preserve" width="48.8814mm" height="12.5338mm" version="1.1" style="shape-rendering:geometricPrecision; text-rendering:geometricPrecision; image-rendering:optimizeQuality; fill-rule:evenodd; clip-rule:evenodd"
viewBox="0 0 464.41 119.08"
 xmlns:xlink="http://www.w3.org/1999/xlink"
 xmlns:xodm="http://www.corel.com/coreldraw/odm/2003">
 <defs>
  <style type="text/css">
   <![CDATA[
    .fil0 {fill:none}
    .fil1 {fill:#600EE6;fill-rule:nonzero}
   ]]>
  </style>
 </defs>
 <g id="Layer_x0020_1">
  <metadata id="CorelCorpID_0Corel-Layer"/>
  <rect class="fil0" x="-0" y="0" width="464.41" height="119.08"/>
  <path class="fil1" d="M389.3 94.39l-8.25 0 0 1.01 52.26 0 0 -20.81 -0.73 0c-2.38,12.47 -13.29,19.8 -25.58,19.8l-6.33 0 0 -63.26 8.34 0 0 -1.01 -27.96 0 0 1.01 8.25 0 0 63.26zm-62.19 -80.09l6.41 -6.41 6.41 6.41 -6.41 6.41 -6.41 -6.41zm18.78 0l6.41 -6.41 6.41 6.41 -6.41 6.41 -6.41 -6.41zm-248.59 0l6.41 -6.41 6.41 6.41 -6.41 6.41 -6.41 -6.41zm-57.95 80.09l-8.25 0 0 1.01 28.42 0 0 -1.01 -8.8 0 0 -31.63c13.75,0 15.04,9.17 15.4,13.66l0.73 0 0 -28.05 -0.73 0c-0.83,8.98 -4.77,13.38 -15.4,13.38l0 -30.62 7.88 0c13.11,0 19.62,7.7 22.37,19.99l0.73 0 0 -20.99 -50.61 0 0 1.01 8.25 0 0 63.26zm58.68 0l-8.25 0 0 1.01 27.87 0 0 -1.01 -8.25 0 0 -63.26 8.25 0 0 -1.01 -27.87 0 0 1.01 8.25 0 0 63.26zm36.49 0l-8.25 0 0 1.01 52.26 0 0 -20.81 -0.73 0c-2.38,12.47 -13.29,19.8 -25.58,19.8l-6.33 0 0 -63.26 8.34 0 0 -1.01 -27.96 0 0 1.01 8.25 0 0 63.26zm106.99 -17.33l-0.73 0c-4.22,13.02 -10.63,17.33 -20.08,17.33l-13.66 0 0 -32.18c5.87,0 14.76,0 16.14,13.02l0.73 0 0 -26.77 -0.73 0c-1.47,12.74 -9.9,12.74 -16.14,12.74l0 -30.07 9.44 0c12.28,0 16.32,7.33 18.98,14.76l0.73 0 0 -15.77 -48.77 0 0 1.01 8.25 0 0 63.26 -8.25 0 0 1.01 54.09 0 0 -18.34zm29.8 17.33l-8.25 0 0 1.01 27.87 0 0 -1.01 -8.25 0 0 -63.26 1.1 0c12.47,0 19.07,9.72 20.9,20.99l0.73 0 0 -22 -56.84 0 0 22 0.73 0c1.83,-11.28 8.43,-20.99 20.9,-20.99l1.1 0 0 63.26zm59.59 -63.26l8.34 0 0 -1.01 -27.96 0 0 1.01 8.25 0 0 41.71c0,17.69 8.53,24.2 26.5,24.2 12.1,0 20.17,-6.78 20.17,-19.8l0 -46.11 8.34 0 0 -1.01 -17.79 0 0 1.01 8.43 0 0 46.11c0,13.02 -7.79,18.79 -18.89,18.79 -7.33,0 -11.83,-3.39 -13.75,-8.34 -1.38,-3.58 -1.65,-8.53 -1.65,-14.67l0 -41.9z"/>
 </g>
</svg>
